HIERARCHY
ROOT hip
{
	OFFSET 0.000000 0.000000 0.000000 
	CHANNELS 6 Xposition Yposition Zposition Xrotation Zrotation Yrotation
	JOINT abdomen
	{
		OFFSET 0.000000 3.402643 0.000000 
		CHANNELS 3 Xrotation Zrotation Yrotation
		JOINT chest
		{
			OFFSET 0.000000 8.438565 -0.680529 
			CHANNELS 3 Xrotation Zrotation Yrotation
			JOINT neck
			{
				OFFSET 0.000000 10.207942 -0.272212 
				CHANNELS 3 Xrotation Zrotation Yrotation
				JOINT head
				{
					OFFSET 0.000000 3.130431 0.000000 
					CHANNELS 3 Xrotation Zrotation Yrotation
					End Site
					{
						OFFSET 0.000000 3.130435 0.000000 
					}
				}
			}
			JOINT lCollar
			{
				OFFSET 3.470700 6.669187 -0.816635 
				CHANNELS 3 Yrotation Zrotation Xrotation
				JOINT lShldr
				{
					OFFSET 3.198488 0.000000 0.000000 
					CHANNELS 3 Zrotation Yrotation Xrotation
					JOINT lForeArm
					{
						OFFSET 10.139888 0.000000 0.000000 
						CHANNELS 3 Yrotation Zrotation Xrotation
						JOINT lHand
						{
							OFFSET 8.370511 0.000000 0.000000 
							CHANNELS 3 Zrotation Yrotation Xrotation
							End Site
							{
								OFFSET 4.083176 0.000000 0.000000 
							}
						}
					}
				}
			}
			JOINT rCollar
			{
				OFFSET -3.470700 6.669187 -0.816635 
				CHANNELS 3 Yrotation Zrotation Xrotation
				JOINT rShldr
				{
					OFFSET -3.198488 0.000000 0.000000 
					CHANNELS 3 Zrotation Yrotation Xrotation
					JOINT rForeArm
					{
						OFFSET -10.139888 0.000000 0.000000 
						CHANNELS 3 Yrotation Zrotation Xrotation
						JOINT rHand
						{
							OFFSET -8.370511 0.000000 0.000000 
							CHANNELS 3 Zrotation Yrotation Xrotation
							End Site
							{
								OFFSET -4.083176 0.000000 0.000000 
							}
						}
					}
				}
			}
		}
	}
	JOINT lThigh
	{
		OFFSET 5.308129 -1.633274 1.361059 
		CHANNELS 3 Xrotation Zrotation Yrotation
		JOINT lShin
		{
			OFFSET -2.041588 -20.007561 0.000000 
			CHANNELS 3 Xrotation Zrotation Yrotation
			JOINT lFoot
			{
				OFFSET 0.000000 -19.190928 -1.224953 
				CHANNELS 3 Xrotation Yrotation Zrotation
				End Site
				{
					OFFSET 0.000000 -2.449906 4.627600 
				}
			}
		}
	}
	JOINT rThigh
	{
		OFFSET -5.308129 -1.633274 1.361059 
		CHANNELS 3 Xrotation Zrotation Yrotation
		JOINT rShin
		{
			OFFSET 2.041588 -20.007561 0.000000 
			CHANNELS 3 Xrotation Zrotation Yrotation
			JOINT rFoot
			{
				OFFSET 0.000000 -19.190928 -1.224953 
				CHANNELS 3 Xrotation Yrotation Zrotation
				End Site
				{
					OFFSET 0.000000 -2.449906 4.627600 
				}
			}
		}
	}
}
MOTION
Frames: 8
Frame Time: 0.033333
-49.692539 47.693855 -46.151970 1.261921 3.348799 71.138618 0.000000 0.000000 0.000000 8.673573 1.129515 5.065032 -8.603516 0.000000 0.000000 13.223352 -0.992858 24.314150 -2.957607 -0.090307 -0.002318 -79.624802 4.048095 -15.769958 -37.426743 -32.942059 8.143188 19.992290 -43.453579 13.602982 2.957607 0.090307 -0.002334 80.040154 8.147381 -2.002674 35.330940 21.293898 5.977011 -32.953831 43.942501 9.645552 -6.013013 11.877879 6.903304 8.659880 -2.355071 5.221605 4.765258 -2.402665 -13.111547 8.645789 -12.925647 -27.512012 5.922904 5.978545 6.789890 -9.913182 -4.280081 1.576854 
-49.683697 47.699787 -46.147049 1.281422 3.299958 71.119133 0.000000 0.000000 0.000000 8.644157 1.090984 5.107408 -8.603516 0.000000 0.000000 13.203804 -0.983151 24.305508 -2.957607 -0.090307 -0.002318 -79.696602 4.092966 -15.829481 -37.442833 -32.922897 8.195685 19.863758 -43.335499 13.678165 2.957607 0.090307 -0.002334 79.990746 8.144782 -1.963196 35.331177 21.294502 5.967265 -33.084961 44.010418 9.588071 -5.986523 11.884949 6.647218 8.489446 -2.351454 5.270771 4.868707 -2.152156 -13.187099 8.617581 -12.906362 -27.507141 5.880650 5.966167 6.786039 -9.917710 -4.270303 1.592571 
-49.671268 47.697216 -46.143799 1.300948 3.270643 71.090294 0.000000 0.000000 0.000000 8.614718 1.042791 5.158124 -8.603516 0.000000 0.000000 13.203777 -0.963683 24.316845 -2.957607 -0.090307 -0.002318 -79.747719 4.119393 -15.879637 -37.456173 -32.898960 8.209548 19.779667 -43.243565 13.752176 2.957607 0.090307 -0.002334 79.960495 8.152957 -1.935015 35.308586 21.291420 5.979302 -33.261887 44.113892 9.487104 -5.984592 11.870197 6.481346 8.345492 -2.363998 5.347056 4.963948 -2.011769 -13.186700 8.612153 -12.909694 -27.486881 5.842844 5.977178 6.792642 -9.906754 -4.262591 1.564169 
-49.653915 47.700905 -46.144249 1.330241 3.231553 71.042229 0.000000 0.000000 0.000000 8.585313 1.004247 5.210348 -8.603516 0.000000 0.000000 13.193996 -0.953962 24.317791 -2.957607 -0.090307 -0.002318 -79.798668 4.145888 -15.919325 -37.447628 -32.881409 8.253625 19.799047 -43.163601 13.777534 2.957607 0.090307 -0.002334 79.930412 8.161162 -1.915212 35.296375 21.286448 5.978107 -33.406063 44.200386 9.409959 -5.983836 11.848724 6.372649 8.245168 -2.362956 5.391994 5.013346 -1.915038 -13.224023 8.597861 -12.896810 -27.464857 5.802802 5.976248 6.798884 -9.921154 -4.254027 1.578966 
-49.631416 47.706505 -46.135857 1.379055 3.163148 71.004272 0.000000 0.000000 0.000000 8.546025 0.917435 5.304013 -8.603516 0.000000 0.000000 13.154903 -0.934544 24.300463 -2.957607 -0.090307 -0.002318 -79.878059 4.151320 -15.968921 -37.424114 -32.834251 8.292852 19.748598 -43.020103 13.879646 2.957607 0.090307 -0.002334 79.850632 8.186393 -1.894940 35.291973 21.270914 5.982024 -33.614334 44.311111 9.279228 -6.033383 11.812082 6.154084 8.053870 -2.323854 5.434984 5.158062 -1.681047 -13.262624 8.588953 -12.877176 -27.490881 5.728529 5.967751 6.830627 -9.923635 -4.240514 1.563226 
-49.608913 47.706505 -46.132942 1.418097 3.104519 70.965904 0.000000 0.000000 0.000000 8.506802 0.849922 5.410454 -8.603516 0.000000 0.000000 13.125566 -0.905376 24.283726 -2.957607 -0.090307 -0.002318 -79.968040 4.165864 -16.038187 -37.393398 -32.797512 8.352139 19.749933 -42.882591 13.950978 2.957607 0.090307 -0.002334 79.781441 8.202429 -1.894297 35.291740 21.270309 5.991768 -33.819542 44.402416 9.145562 -6.052282 11.771330 5.916562 7.865038 -2.314091 5.514837 5.291340 -1.456187 -13.315732 8.590048 -12.868450 -27.449802 5.649235 5.978481 6.824006 -9.926805 -4.224973 1.549258 
-49.578018 47.706505 -46.130146 1.466903 3.036116 70.917961 0.000000 0.000000 0.000000 8.418759 0.782493 5.516320 -8.603516 0.000000 0.000000 13.135308 -0.885894 24.226522 -2.957607 -0.090307 -0.002318 -80.019669 4.212003 -16.059177 -37.348125 -32.756676 8.426795 19.831165 -42.807858 14.003836 2.957607 0.090307 -0.002334 79.742508 8.210284 -1.923223 35.281368 21.272192 6.004998 -34.003426 44.485626 9.028818 -6.023996 11.754212 5.799470 7.670596 -2.353415 5.602450 5.382506 -1.375792 -13.284773 8.577164 -12.866223 -27.419399 5.568745 5.976189 6.797502 -9.924835 -4.237051 1.564952 
-49.555515 47.703705 -46.130146 1.515719 2.977475 70.899460 0.000000 0.000000 0.000000 8.340497 0.715014 5.602983 -8.603516 0.000000 0.000000 13.125531 -0.876171 24.188383 -2.957607 -0.090307 -0.002318 -80.060379 4.239204 -16.069479 -37.361805 -32.758301 8.455662 19.991573 -42.717438 14.037978 2.957607 0.090307 -0.002334 79.712639 8.228360 -1.942449 35.271706 21.275888 5.988995 -34.136276 44.563190 8.945031 -5.984636 11.743785 5.780941 7.534059 -2.431715 5.694517 5.407271 -1.397658 -13.229014 8.579964 -12.887552 -27.402628 5.492766 5.995810 6.810563 -9.912239 -4.243663 1.561982 
